/* XPM */
static char *ccny_logo[] = {
/* columns rows colors chars-per-pixel */
"100 99 2 1 ",
"  c #5555AA",
"+ c none",
/* pixels */
"++++++++++++++++++++++++++++++++++++++++++++++++++++++++++++++++++++++++++++++++++++++++++++++++++++",
"++++++++++++++++++++++++++++++++++++++++++++++++++++++++++++++++++++++++++++++++++++++++++++++++++++",
"++++++++++++++++++++++++++++++++++++++++++++++++++++++++++++++++++++++++++++++++++++++++++++++++++++",
"++++++++++++++++++++++++++++++++++++++++++                  ++++++++++++++++++++++++++++++++++++++++",
"++++++++++++++++++++++++++++++++++++++         ++++++++         ++++++++++++++++++++++++++++++++++++",
"+++++++++++++++++++++++++++++++++++     +++++++++++++++++++++      +++++++++++++++++++++++++++++++++",
"++++++++++++++++++++++++++++++++     +++++++++  + ++++   ++++++++    +++++++++++++++++++++++++++++++",
"++++++++++++++++++++++++++++++    +++++++++++++  +++++ +++++++ +++++    ++++++++++++++++++++++++++++",
"++++++++++++++++++++++++++++    +++++   ++++++++ ++++   +++++  +++++++   +++++++++++++++++++++++++++",
"++++++++++++++++++++++++++    ++++++    ++++++++ ++++  ++++++  +++++ +++   +++++++++++++++++++++++++",
"+++++++++++++++++++++++++   +++  ++++ + ++++++++ ++++    +++   ++++   ++++   +++++++++++++++++++++++",
"+++++++++++++++++++++++   ++++   ++++   +++++++++++++++++++ ++ ++++    ++++   ++++++++++++++++++++++",
"++++++++++++++++++++++   +++++++++++++ +++++++++     +++++++++ +++    +++++++   ++++++++++++++++++++",
"+++++++++++++++++++++  +++++++++++++++++++                  ++++++    ++++  ++   +++++++++++++++++++",
"++++++++++++++++++++  +++  +++++++++++        ++++++++++       +++++  +++  + +++  ++++++++++++++++++",
"++++++++++++++++++   +++++  ++++++++     ++++++++++++++++++++     ++++++++ ++++++  +++++++++++++++++",
"+++++++++++++++++   +++++++  +++++    ++++++++++++++++++++++++++    ++++ +  ++++++  ++++++++++++++++",
"++++++++++++++++   ++++++++  +++   +++++++++++++++++++++++++++++++    +++  ++++++++  +++++++++++++++",
"+++++++++++++++   ++++++++++++   +++++++++++++++++++++++++++++++++++   +++++++++++++  ++++++++++++++",
"+++++++++++++++  ++++++++++++   ++++++++++++++++++++++++++++++++++++++   ++++++++++++  +++++++++++++",
"++++++++++++++  ++++++++++++  +++++++++++++++++++++++++++++++++++++++++   +++++++ ++++  ++++++++++++",
"+++++++++++++  ++++  +++++   +++++++++++++                +++++++++++++++  ++++++  ++++  +++++++++++",
"++++++++++++  +++++++++++   ++++++++++++    ++++     +++   +++++++++++++++  +++++ +++++  +++++++++++",
"++++++++++++ +++++++++++  +++++++++++++   ++++++++++++++++  +++++++++++++++  +++++++++++  ++++++++++",
"+++++++++++  ++++++++++  ++++++++++     +++++++++++++++++++  + +++++++++++++  +++++++++++  +++++++++",
"++++++++++  ++++++++++  +++++++++        +++++++++++++++++++              +++  ++++++++++  +++++++++",
"++++++++++ ++++++++++  ++++++++    +++++++++++++++  +++++++++  ++++++       ++  ++++++++++  ++++++++",
"+++++++++  ++++++++++  +++++     ++++++++++ +++++    +++++ ++  +++++++++++   ++  ++++++  ++ ++++++++",
"+++++++++ ++  ++++++  ++       +++++++++++  ++++  +   ++++ +++  +++++++  +++ +++  +++++ +++  +++++++",
"++++++++  +++     +  ++   +++++++++++++++   ++   ++++   ++  ++++++++++   +++ +++  ++ +    ++  ++++++",
"++++++++ ++++++  ++ +++  ++++++++++++++    +    ++++++    +    +++++++   ++  ++++  +++    ++  ++++++",
"+++++++  ++++++ ++  ++  ++++    +++++    ++   ++++++++++   ++    +++   +  +  +++++  +   +++++ ++++++",
"+++++++ +++++++ +  +++  +++    +++++   ++   ++++++++++++++  +++       ++    ++++++  +++++++++  +++++",
"++++++  +++++++++  ++++ ++  ++ ++++  +++   ++++++++++++++++   +++  +++++    +++++++  ++++++++  +++++",
"++++++  ++   +++  +++++  +  ++ +++  +++  ++++++++++++++++++++  +++  ++++  +  ++++++  +++++  ++  ++++",
"++++++ ++++    +  ++++++    ++  +  +++  ++++++++++++++++++++++  +++ +++++++  +++++++  ++   +++  ++++",
"+++++  ++ ++++++ +++++++    ++  +  ++  ++++++++++++++++++++++++  ++  ++++++  +++++++  +      ++ ++++",
"+++++  ++    ++  +++++++ ++++++   ++  ++++++++++++++++++++++++++ ++  ++++++  ++++++++ ++    +++  +++",
"+++++ +++++   +  ++++++  ++++++   ++  +++     ++++++++++    ++++  ++ +++ +++ ++++++++  + ++++++  +++",
"++++  ++++++++  +++++++  +++++++  ++  ++        +++++         ++  ++      ++ ++++++++  ++++++++  +++",
"++++  ++++++++  +++++++ ++  ++++  ++  ++++++++   +++   +++++++++  ++   ++ ++ +++++++++ +++++++++ +++",
"++++  ++++++++  +++++++       ++  ++  ++++  ++++  ++  +++  +++++  ++  ++  +  +++++++++  ++   +++  ++",
"++++  +     ++ ++++++++++++++  +  ++  ++      ++  +  +++     +++ +++ ++  +  ++++++++++  +     ++  ++",
"++++ ++ +   ++ +++++++++ ++++  ++ +++ ++  ++   +  +  +   +++ +++ +++ +  ++  ++++++++++  + ++++++  ++",
"++++ ++ + + +  +++++++++ ++++  ++  ++ +++         +  +      +++  ++  +   ++ ++++++++++  +  +  ++  ++",
"+++  ++++++++  +++++++++ +    +++  ++  +++    ++  ++ +++    +++  ++  +++  +  ++++++++++ ++    ++  ++",
"+++  ++++++++  +++++++++ +  ++++++  +  +++++++++  ++ ++++++++++  +  +++++++  ++++++++++ +++++++++ ++",
"+++  ++++++++  +++++++++ ++ ++++++  +  +++++++++  ++ ++++++++++  + ++++++++  ++++++++++  ++++++++ ++",
"+++  ++++++++  ++++++++  ++  ++++++    +++++++++  ++ ++++++++++    +++++++++ ++++++++++  ++++++++ ++",
"+++  ++++++++  ++++++++  ++  +++++++  ++++++++++  ++ ++++++++++   ++++++++++  +++++++++  + ++++++ ++",
"+++  ++++++++  ++++++++  +++ +++++++  +++++++++  +++  ++++++++++  ++++++++++  +++++++++  ++    ++ ++",
"+++  ++++++++  ++++++++    +   +++++   ++++++++  +++  +++++++++   ++++++      +++++++++  +     ++ ++",
"+++  +++   ++  +++++++++    +   +++    ++++++++       +++++++++   ++++++     ++++++++++  + ++++++ ++",
"+++  ++  +  +  ++++++++++  +++  +++  +  +++++++++   ++++++++++  +  ++++++  ++++++++++++  ++++++++ ++",
"+++  ++ +++++  ++++++++++  ++++++++ ++  ++++++++++++++++++++++ ++  ++++++  ++++++++++++ ++++++++  ++",
"+++  ++ +++ +  +++++++++++     +++  +++ +++++++++++++++++++++  +++  ++     ++++++++++++ ++++++++  ++",
"++++ ++++++++  +++++++++++      ++  +++  ++++++        ++++++  +++  ++ +  ++++++++++++  ++++++++  ++",
"++++ +++++++++ +++++++++++  ++++++  +++  +++++         ++++++  +++  +++++  +++++++++++  ++++++++  ++",
"++++  ++++++++ +++++++++++   +++++  +++   ++++++      ++++++   +++  ++++  ++++++++++++  + ++++++  ++",
"++++  +++    +  ++++++++++++ +++++  +++   ++++++      ++++++   +++  +++  +++++++++++++  +  +++++ +++",
"++++  ++    ++  +++++++++++  +++++  +++    ++++++++++++++++    +++  +++  +++++++++++++ ++++  +++ +++",
"+++++ +++++++++ +++++++++++  +++++  +++     ++++++++++++++     +++ +++++  +++++++++++  ++    ++  +++",
"+++++ +++++++++  ++++++++++         +++ +    ++++++++++++      ++        ++++++++++++  +++ ++++  +++",
"+++++  ++++++ +  +++++++++++   +     +  +  +   ++++++++   +  + ++        ++++++++++++ ++     ++ ++++",
"+++++  ++++++ ++ ++++++++++++++++++  +  +  ++            ++  +  + ++++++++++++++++++  ++++++++  ++++",
"++++++ ++++    +  ++++++++++++++++++   ++  ++++        ++++  +    ++++++++++++++++++ +++++++++  ++++",
"++++++  ++   + ++ ++++++++++++++++++   ++  ++++++++++++++++  ++  ++++++++++++++++++  +++++++++  ++++",
"++++++  +++++++++  +++++++++++++++++  +++  ++++++++++++++++  ++   +++++++++++++++++  + ++++++  +++++",
"+++++++  +++++++++ ++++++++++++++++    ++  ++++++++++++++++  ++   ++++++++++++++++  +  + + ++  +++++",
"+++++++  +++++++++  +++++++++++++++ +  ++  ++++++++++++++++  ++ +  +++++++++++++++ ++   ++ ++ ++++++",
"++++++++ +++++++ ++  +++++++++++++  +  ++  ++++++++++++++++  ++ ++  +++++++++++++  ++++   ++  ++++++",
"++++++++  +++++  ++  ++++++++++++  +++ ++  ++++++++++++++++  ++ +++ ++++++++++++  ++++++++++ +++++++",
"+++++++++ +++   + ++  +++++++++++  +++ +  ++++++++++++++++++ ++ +++  ++++++++++  ++ +++++++  +++++++",
"+++++++++  ++  ++++++  ++++++++++  ++++   ++++++++++++++++++  +++++  ++++++++++  +++ +++++  ++++++++",
"++++++++++  ++++++++++  +++++++++ ++++   ++++++++++++++++++++   +++  +++++++++  ++     +++  ++++++++",
"++++++++++  +++++++++++  ++++++++ ++   +++++++++++++++++++++++    +  ++++++++  ++      ++  +++++++++",
"+++++++++++  ++++++++++   +++++++     ++++++++++++++++++++++++++     +++++++  +++++ +++++ ++++++++++",
"++++++++++++  ++++++++++   +        ++++++++++++++++++++++++++++++        +  +++++++ +++  ++++++++++",
"++++++++++++  +++++++  +++      ++++++++++++++++++++++++++++++++++++++      +++++++++++  +++++++++++",
"+++++++++++++  +++++   + ++  +++++++++++++++++++++++++++++++++++++++++++   +++++++++++  ++++++++++++",
"++++++++++++++  ++++ +++ +++   ++++++++++++++++++++++++++++++++++++++++   ++ +++++++++  ++++++++++++",
"+++++++++++++++  +++ ++++++++   +++++++++++++++++++++++++++++++++++++   +++ +++++++++  +++++++++++++",
"++++++++++++++++  ++  +++++++++   ++++++++++++++++++++++++++++++++++   ++++   ++++++  ++++++++++++++",
"+++++++++++++++++  +++++++    ++    +++++++++++++++++++++++++++++    +++++++  +++++  +++++++++++++++",
"++++++++++++++++++  +++++  ++  +++     ++++++++++++++++++++++++    +++  ++++  ++++  ++++++++++++++++",
"+++++++++++++++++++  ++++  ++  ++++++     ++++++++++++++++++     ++++ +  ++++ ++   +++++++++++++++++",
"++++++++++++++++++++  +++  +  ++++ ++++          ++++         ++++++  ++  +++++   ++++++++++++++++++",
"+++++++++++++++++++++   +++  ++++  ++++++++               ++++++++++  ++  ++++  ++++++++++++++++++++",
"++++++++++++++++++++++   ++++++++  ++++  +++++++++++++++++++  +++++++  + ++++  +++++++++++++++++++++",
"++++++++++++++++++++++++   +++++  +++++  +++++ +++++++ ++++  +++++++++  +++   ++++++++++++++++++++++",
"+++++++++++++++++++++++++   ++++  +++++  ++++  + +++  + +++   +++++++++++   ++++++++++++++++++++++++",
"+++++++++++++++++++++++++++   ++++ ++++ +++++  ++++  ++++++  ++++++++++    +++++++++++++++++++++++++",
"+++++++++++++++++++++++++++++   ++++++  + +++  ++++  +  ++++ + ++++++    +++++++++++++++++++++++++++",
"+++++++++++++++++++++++++++++++    +++++  +++  +++++    ++++ ++++++    +++++++++++++++++++++++++++++",
"+++++++++++++++++++++++++++++++++     +++++++++ +++++  +++++++++     +++++++++++++++++++++++++++++++",
"+++++++++++++++++++++++++++++++++++       ++++++++++++++++++      ++++++++++++++++++++++++++++++++++",
"+++++++++++++++++++++++++++++++++++++++                        +++++++++++++++++++++++++++++++++++++",
"++++++++++++++++++++++++++++++++++++++++++++              ++++++++++++++++++++++++++++++++++++++++++",
"++++++++++++++++++++++++++++++++++++++++++++++++++++++++++++++++++++++++++++++++++++++++++++++++++++"
};
